<svg width="24" height="24" viewBox="0 0 24 24" fill="none" xmlns="http://www.w3.org/2000/svg">
<path d="M2.76574 10.1878L11.7657 2.9878C11.9027 2.87823 12.0973 2.87823 12.2343 2.9878L21.2343 10.1878C21.3232 10.259 21.375 10.3667 21.375 10.4806V21C21.375 21.2071 21.2071 21.375 21 21.375H20H16.5C16.2929 21.375 16.125 21.2071 16.125 21V15C16.125 14.1025 15.3975 13.375 14.5 13.375H9.5C8.60254 13.375 7.875 14.1025 7.875 15V21C7.875 21.2071 7.70711 21.375 7.5 21.375H4.5H3C2.79289 21.375 2.625 21.2071 2.625 21V10.4806C2.625 10.3667 2.67678 10.259 2.76574 10.1878Z" fill="#AAAEB1" stroke="#AAAEB1" stroke-width="1.25"/>
</svg>
