<svg width="33" height="40" viewBox="0 0 33 40" fill="none" xmlns="http://www.w3.org/2000/svg">
<g clip-path="url(#clip0_54_3809)">
<path d="M31.4011 15.1C31.4011 15.3492 31.3934 15.6059 31.3779 15.855C31.3391 16.6327 31.2461 17.3952 31.0834 18.1351C31.0679 18.2257 31.0446 18.3088 31.0214 18.3994C30.6416 19.7886 29.9984 21.3137 29.1846 22.8766C29.1769 22.8917 29.1691 22.9143 29.1536 22.9294C25.8134 29.362 19.6366 36.5949 17.0714 39.479C16.4514 40.1736 15.3509 40.1736 14.7309 39.479C12.1656 36.5949 5.98887 29.362 2.64862 22.9294C2.63312 22.9143 2.62537 22.8917 2.61762 22.8766C1.80387 21.3137 1.16062 19.7886 0.780873 18.3994C0.757623 18.3088 0.734373 18.2257 0.718873 18.1351C0.556123 17.3952 0.463123 16.6327 0.424373 15.855C0.408873 15.6059 0.401123 15.3492 0.401123 15.1C0.401123 6.75727 7.33737 0 15.9011 0C24.4649 0 31.4011 6.75727 31.4011 15.1Z" fill="#3BA5FF"/>
<path d="M30.9439 15.828L30.9439 15.828L30.9436 15.8334C30.9059 16.5908 30.8155 17.329 30.6587 18.0417L30.6565 18.0517L30.6548 18.0618C30.6453 18.1175 30.6324 18.167 30.6137 18.2394C30.6097 18.2545 30.6056 18.2706 30.6011 18.2879C30.2332 19.6324 29.6075 21.121 28.8073 22.6598L28.8 22.6669L28.7678 22.729C25.4551 29.1084 19.3121 36.3056 16.7465 39.1901C16.2994 39.6903 15.5028 39.6903 15.0557 39.1901C12.4901 36.3056 6.34711 29.1084 3.03449 22.729L3.0022 22.6669L2.99497 22.6598C2.19472 21.1209 1.56898 19.6323 1.20112 18.2879C1.19668 18.2706 1.19252 18.2545 1.18861 18.2395C1.16982 18.1671 1.15695 18.1175 1.14743 18.0618L1.1457 18.0517L1.1435 18.0417C0.986726 17.329 0.896358 16.5908 0.858617 15.8334L0.85865 15.8334L0.858317 15.828C0.843391 15.5881 0.835906 15.3404 0.835906 15.1C0.835906 7.00804 7.56671 0.434783 15.9011 0.434783C24.2355 0.434783 30.9663 7.00804 30.9663 15.1C30.9663 15.3404 30.9589 15.5881 30.9439 15.828Z" stroke="#1F5B8C" stroke-opacity="0.15" stroke-width="0.869565"/>
<path d="M10.98 13.6316C10.98 9.94737 13.4273 8 16.4273 8C19.4273 8 21.8221 9.94737 21.8221 13.6316V21.0789C21.8221 21.6316 21.4537 22 20.901 22H19.6642C19.1116 22 18.7431 21.6316 18.7431 21.0789V13.7632C18.7431 11.7105 17.8221 10.6579 16.4273 10.6579C15.0326 10.6579 14.0326 11.7105 14.0326 13.7632V21.0789C14.0326 21.6316 13.6642 22 13.1116 22H11.901C11.3484 22 10.98 21.6316 10.98 21.0789V13.6316Z" fill="white"/>
</g>
<defs>
<clipPath id="clip0_54_3809">
<rect width="32" height="40" fill="white" transform="translate(0.401123)"/>
</clipPath>
</defs>
</svg>
