<svg width="24" height="24" viewBox="0 0 24 24" fill="none" xmlns="http://www.w3.org/2000/svg">
<rect x="2" y="3.51239" width="15" height="10" rx="5" fill="#E2E6E9"/>
<path fill-rule="evenodd" clip-rule="evenodd" d="M7 14.5124C7 11.751 9.23858 9.51239 12 9.51239H17C19.7614 9.51239 22 11.751 22 14.5124C22 15.9192 21.419 17.1903 20.4838 18.0989C20.7411 18.9357 21.2177 19.5997 21.6301 20.0908C21.7693 20.2566 21.6549 20.5064 21.4394 20.4865C20.231 20.3749 19.1609 19.9146 18.2832 19.3462C17.8737 19.4546 17.4436 19.5124 17 19.5124H12C9.23858 19.5124 7 17.2738 7 14.5124ZM15.5 14.5124C15.5 15.0647 15.0523 15.5124 14.5 15.5124C13.9477 15.5124 13.5 15.0647 13.5 14.5124C13.5 13.9601 13.9477 13.5124 14.5 13.5124C15.0523 13.5124 15.5 13.9601 15.5 14.5124ZM18.5 15.5124C19.0523 15.5124 19.5 15.0647 19.5 14.5124C19.5 13.9601 19.0523 13.5124 18.5 13.5124C17.9477 13.5124 17.5 13.9601 17.5 14.5124C17.5 15.0647 17.9477 15.5124 18.5 15.5124ZM11.5 14.5124C11.5 15.0647 11.0523 15.5124 10.5 15.5124C9.94772 15.5124 9.5 15.0647 9.5 14.5124C9.5 13.9601 9.94772 13.5124 10.5 13.5124C11.0523 13.5124 11.5 13.9601 11.5 14.5124Z" fill="#AAAEB1"/>
</svg>
