<svg width="24" height="24" viewBox="0 0 24 24" fill="none" xmlns="http://www.w3.org/2000/svg">
<path d="M9.5249 15.9394L10.1344 13.5323L11.963 12.2247L13.7916 13.5323L14.4012 15.9394C13.1452 17.4893 10.7808 17.4893 9.5249 15.9394Z" fill="#E2E6E9"/>
<path d="M7.06327 9.21582C5.23475 4.40156 9.11366 1.61011 11.8743 2.16677C13.9702 1.7041 15.4403 2.19017 16.6916 3.79978C17.9429 5.40939 17.3011 8.01227 16.6916 9.21582C14.6325 9.29235 14.1733 8.07603 13.6827 7.41048C12.2384 9.81761 8.45964 9.58512 7.06327 9.21582Z" fill="#AAAEB1"/>
<path d="M11.9776 14.7049C8.17229 14.7049 7.61731 10.693 7.81551 8.68706C9.0047 8.88765 11.7399 8.80742 13.1669 6.88171C13.7614 7.4835 15.1884 8.68706 16.1398 8.68706C16.3379 10.693 15.7829 14.7049 11.9776 14.7049Z" fill="#E2E6E9"/>
<path d="M7.15352 9.10692C7.40775 9.01061 7.68053 8.97198 7.95181 8.99387L8.42498 12.4905C8.1691 12.5824 7.89569 12.6164 7.62484 12.5899C7.35398 12.5633 7.09256 12.477 6.8598 12.3372C6.62703 12.1974 6.42882 12.0077 6.27975 11.7821C6.13067 11.5564 6.03452 11.3005 5.99834 11.0332C5.96217 10.7659 5.98689 10.4939 6.07071 10.2373C6.15452 9.98072 6.29529 9.74598 6.48267 9.55036C6.67005 9.35475 6.89928 9.20322 7.15352 9.10692Z" fill="#E2E6E9"/>
<path d="M16.8467 9.10692C16.5924 9.01061 16.3196 8.97198 16.0484 8.99387L15.5752 12.4905C15.8311 12.5824 16.1045 12.6164 16.3753 12.5899C16.6462 12.5633 16.9076 12.477 17.1404 12.3372C17.3731 12.1974 17.5714 12.0077 17.7204 11.7821C17.8695 11.5564 17.9657 11.3005 18.0018 11.0332C18.038 10.7659 18.0133 10.4939 17.9295 10.2373C17.8457 9.98072 17.7049 9.74598 17.5175 9.55036C17.3301 9.35475 17.1009 9.20322 16.8467 9.10692Z" fill="#E2E6E9"/>
<path d="M4 18.8496V20.486C4 21.3222 4.67157 22 5.5 22H12V16.9534C10.6326 16.9534 9.89824 16.0934 9.60956 15.6333C9.54186 15.5254 9.41036 15.4718 9.29124 15.5149L5.32533 16.9493C4.53038 17.2368 4 17.9973 4 18.8496Z" fill="#AAAEB1"/>
<path d="M20 18.8496V20.486C20 21.3222 19.3284 22 18.5 22L12 22V16.9534C13.3674 16.9534 14.1018 16.0934 14.3904 15.6333C14.4581 15.5254 14.5896 15.4718 14.7088 15.5149L18.6747 16.9493C19.4696 17.2368 20 17.9973 20 18.8496Z" fill="#AAAEB1"/>
</svg>
