<svg width="421" height="126" viewBox="0 0 421 126" fill="none" xmlns="http://www.w3.org/2000/svg">
<g clip-path="url(#clip0_201_1901)">
<path d="M0 70.5709C0 47.1265 15.5866 34.7345 34.6928 34.7345C53.799 34.7345 69.0505 47.1265 69.0505 70.5709V117.962C69.0505 121.479 66.7041 123.823 63.1845 123.823H55.3074C51.7878 123.823 49.4415 121.479 49.4415 117.962V71.4082C49.4415 58.3463 43.5755 51.6479 34.6928 51.6479C25.8101 51.6479 19.4414 58.3463 19.4414 71.4082V117.962C19.4414 121.479 17.095 123.823 13.5755 123.823H5.86594C2.34637 123.823 0 121.479 0 117.962V70.5709Z" fill="#3BA5FF"/>
<path d="M115.978 70.236H129.721V67.0542C129.721 57.1741 124.861 51.6479 115.978 51.6479C109.274 51.6479 102.402 53.1551 98.0449 54.1598C94.5253 55.1646 91.8438 53.49 91.0058 49.9733L89.8326 45.7868C88.827 42.1027 90.6706 39.2559 94.0225 38.2512C97.3745 37.2464 106.592 34.7345 115.978 34.7345C136.09 34.7345 149.498 47.294 149.498 67.0542V97.0295C149.498 113.608 134.246 126 116.313 126C98.3801 126 83.1287 113.441 83.1287 97.0295C83.1287 79.2788 96.5365 70.236 115.978 70.236ZM116.313 109.087C124.693 109.087 129.721 103.058 129.721 97.0295V84.6375H115.81C106.425 84.6375 103.073 90.3311 103.073 96.6946C103.073 103.058 107.43 109.087 116.313 109.087Z" fill="#3BA5FF"/>
<path d="M166.254 8.27586C166.254 4.75921 168.098 2.07985 171.785 1.57747L179.159 0.0703379C183.182 -0.432041 185.863 1.74493 185.863 5.59651V117.962C185.863 121.479 183.517 123.823 179.997 123.823H172.12C168.601 123.823 166.254 121.479 166.254 117.962V8.27586Z" fill="#3BA5FF"/>
<path d="M202.12 110.426C202.958 107.077 205.807 105.737 209.327 106.742C213.349 107.747 219.215 109.087 226.087 109.087C233.629 109.087 238.992 105.235 238.992 100.044C238.992 83.9676 201.785 89.9962 201.785 60.0209C201.785 45.4519 213.517 34.7345 232.455 34.7345C239.997 34.7345 245.863 35.9067 249.886 37.0789C252.902 37.9162 255.081 40.763 254.076 44.2797L252.735 49.471C251.729 53.1551 249.048 54.4947 245.528 53.49C242.511 52.6527 237.819 51.6479 232.455 51.6479C224.746 51.6479 221.897 55.332 221.897 60.0209C221.897 75.0923 258.936 68.7288 258.936 99.7088C258.936 112.938 248.377 126 226.087 126C217.036 126 209.159 124.158 205.305 122.986C202.12 121.981 199.941 119.469 200.947 115.618L202.12 110.426Z" fill="#3BA5FF"/>
<path d="M270.162 70.7383C270.162 47.294 285.581 34.7345 304.519 34.7345C323.458 34.7345 339.044 48.1313 339.044 67.5566V80.1161C339.044 83.6327 336.698 85.9772 333.179 85.9772H289.603V89.1589C289.603 102.723 296.139 109.087 307.368 109.087C315.078 109.087 321.447 107.579 325.301 106.575C328.821 105.737 331.503 107.077 332.341 110.426L333.514 115.45C334.352 119.134 332.676 121.981 329.324 122.986C323.961 124.493 317.592 126 307.368 126C285.245 126 270.162 113.273 270.162 89.1589V70.7383ZM319.435 71.5756V67.5566C319.435 58.5138 313.57 51.6479 304.519 51.6479C295.469 51.6479 289.603 58.0114 289.603 68.7288V71.5756H319.435Z" fill="#3BA5FF"/>
<path d="M352.117 70.7383C352.117 47.294 367.536 34.7345 386.475 34.7345C405.413 34.7345 421 48.1313 421 67.5566V80.1161C421 83.6327 418.654 85.9772 415.134 85.9772H371.559V89.1589C371.559 102.723 378.095 109.087 389.324 109.087C397.034 109.087 403.402 107.579 407.257 106.575C410.777 105.737 413.458 107.077 414.296 110.426L415.469 115.45C416.307 119.134 414.631 121.981 411.279 122.986C405.916 124.493 399.547 126 389.324 126C367.201 126 352.117 113.273 352.117 89.1589V70.7383ZM401.391 71.5756V67.5566C401.391 58.5138 395.525 51.6479 386.475 51.6479C377.425 51.6479 371.559 58.0114 371.559 68.7288V71.5756H401.391Z" fill="#3BA5FF"/>
</g>
<defs>
<clipPath id="clip0_201_1901">
<rect width="421" height="126" fill="white"/>
</clipPath>
</defs>
</svg>
